<svg version="1.2" xmlns="http://www.w3.org/2000/svg" viewBox="0 0 18 18" width="18" height="18"><style>.a{fill:#fff}</style><path fill-rule="evenodd" class="a" d="m7.3 15.8c-1.1 0-2-0.9-2-2 0-1 0.9-1.9 2-1.9 1.1 0 2 0.9 2 1.9 0 1.1-0.9 2-2 2zm1.3-2c0-0.6-0.6-1.2-1.2-1.2-0.7 0-1.3 0.6-1.3 1.2 0 0.7 0.6 1.3 1.3 1.3 0.6 0 1.2-0.6 1.2-1.3zm5.9 2c-1.1 0-2-0.9-2-2 0-1 0.9-1.9 2-1.9 1.1 0 2 0.9 2 1.9 0 1.1-0.9 2-2 2zm1.3-2c0-0.6-0.6-1.2-1.2-1.2-0.7 0-1.3 0.6-1.3 1.2 0 0.7 0.6 1.3 1.3 1.3 0.6 0 1.2-0.6 1.2-1.3zm1.9-8.9l-1.5 5.7h-0.1v0.1h-10.6l-3-7.8h-2.5v-0.8h3v0.2l0.8 1.8h14.2v0.3zm-2.3 5l1.4-5h-13l2 5z"/></svg>