<svg version="1.2" xmlns="http://www.w3.org/2000/svg" viewBox="0 0 20 20" width="20" height="20"><style>.a{fill:#fff}</style><path fill-rule="evenodd" class="a" d="m8.1 17.5c-1.2 0-2.2-0.9-2.2-2.1 0-1.3 1-2.2 2.2-2.2 1.3 0 2.2 0.9 2.2 2.2 0 1.2-0.9 2.1-2.2 2.1zm1.4-2.1c0-0.8-0.6-1.4-1.4-1.4-0.7 0-1.3 0.6-1.3 1.4 0 0.7 0.6 1.3 1.3 1.3 0.8 0 1.4-0.6 1.4-1.3zm6.6 2.1c-1.2 0-2.2-0.9-2.2-2.1 0-1.3 1-2.2 2.2-2.2 1.2 0 2.2 0.9 2.2 2.2 0 1.2-1 2.1-2.2 2.1zm1.4-2.1c0-0.8-0.6-1.4-1.4-1.4-0.7 0-1.3 0.6-1.3 1.4 0 0.7 0.6 1.3 1.3 1.3 0.8 0 1.4-0.6 1.4-1.3zm2.2-10l-1.8 6.4h-0.1v0.1h-11.6-0.1l-3.3-8.6h-2.7v-0.9h3.3v0.2l0.8 2h15.7v0.1 0.2zm-2.5 5.6l1.6-5.6h-14.4l2.2 5.6z"/></svg>