<svg version="1.2" xmlns="http://www.w3.org/2000/svg" viewBox="0 0 17 17" width="17" height="17"><style>.a{fill:#fff}</style><path fill-rule="evenodd" class="a" d="m6.3 15.6c-1 0-1.9-0.8-1.9-1.9 0-1 0.9-1.9 1.9-1.9 1.1 0 2 0.9 2 1.9 0 1.1-0.9 1.9-2 1.9zm1.3-1.9c0-0.6-0.6-1.2-1.2-1.2-0.7 0-1.2 0.6-1.2 1.2 0 0.7 0.5 1.2 1.2 1.2 0.6 0 1.2-0.5 1.2-1.2zm5.8 1.9c-1.1 0-2-0.8-2-1.9 0-1 0.9-1.9 2-1.9 1 0 1.9 0.9 1.9 1.9 0 1.1-0.9 1.9-1.9 1.9zm1.2-1.9c0-0.6-0.5-1.2-1.2-1.2-0.6 0-1.2 0.6-1.2 1.2 0 0.7 0.6 1.2 1.2 1.2 0.7 0 1.2-0.5 1.2-1.2zm1.9-8.7l-1.5 5.6h-0.1v0.1h-10.3l-2.9-7.6h-2.4v-0.8h2.9v0.2l0.7 1.7h13.8v0.3zm-2.2 4.9l1.4-4.9h-12.7l2 4.9z"/></svg>