<svg version="1.2" xmlns="http://www.w3.org/2000/svg" viewBox="0 0 24 24" width="24" height="24"><style></style><path  d="m2.5 12.5c-0.3 0-0.5-0.2-0.5-0.5 0-0.3 0.2-0.5 0.5-0.5 0.3 0 0.5 0.2 0.5 0.5 0 0.3-0.2 0.5-0.5 0.5zm18.4 0.1c-0.5 0-1-0.3-1-0.6 0-0.4 0.5-0.6 1-0.6 0.6 0 1.1 0.2 1.1 0.6 0 0.3-0.5 0.6-1.1 0.6zm-6.3-6.6c-0.2-0.2-0.2-0.6 0-0.8 0.2-0.2 0.5-0.2 0.7 0 0.3 0.2 0.3 0.6 0 0.8-0.2 0.2-0.5 0.2-0.7 0zm0 12.8c-0.2-0.2-0.2-0.6 0-0.8 0.2-0.2 0.5-0.2 0.7 0 0.2 0.2 0.2 0.6 0 0.8-0.2 0.2-0.5 0.2-0.7 0zm7.1-6.4l-6.3 6.3-0.8-0.7 6.4-6.4zm-1.4-0.9v1h-17.9v-1zm1.4 0.1l-0.8 0.8-6.3-6.4 0.7-0.7z"/></svg>