<svg version="1.2" xmlns="http://www.w3.org/2000/svg" viewBox="0 0 24 24" width="24" height="24"><style></style><path  d="m21.5 11.5c0.3 0 0.5 0.2 0.5 0.5 0 0.2-0.2 0.5-0.5 0.5-0.3 0-0.5-0.3-0.5-0.5 0-0.3 0.2-0.5 0.5-0.5zm-18.4-0.2c0.5 0 1 0.3 1 0.7 0 0.3-0.5 0.6-1 0.6-0.6 0-1.1-0.3-1.1-0.6 0-0.4 0.5-0.7 1.1-0.7zm6.3 6.7c0.2 0.2 0.2 0.5 0 0.8-0.2 0.2-0.5 0.2-0.7 0-0.3-0.3-0.3-0.6 0-0.8 0.2-0.2 0.5-0.2 0.7 0zm0-12.8c0.2 0.2 0.2 0.5 0 0.7-0.2 0.3-0.5 0.3-0.7 0-0.2-0.2-0.2-0.5 0-0.7 0.2-0.2 0.5-0.2 0.7 0zm-7.1 6.4l6.3-6.4 0.8 0.8-6.4 6.3zm1.4 0.9v-1h17.9v1zm-1.4 0l0.8-0.8 6.3 6.3-0.7 0.8z"/></svg>